<svg width="370" height="370" viewBox="0 0 370 370" fill="none" xmlns="http://www.w3.org/2000/svg">
<g clip-path="url(#clip0)">
<path d="M311.926 97.5C307.751 97.5 303.833 99.1235 300.878 102.078L273.828 129.128C270.874 132.083 269.25 136.001 269.25 140.176V263.125C269.25 268.289 273.461 272.5 278.625 272.5H403.625C408.789 272.5 413 268.289 413 263.125V106.875C413 101.711 408.789 97.5 403.625 97.5H311.926ZM313 103.75H403.625C405.346 103.75 406.75 105.154 406.75 106.875V263.125C406.75 264.846 405.346 266.25 403.625 266.25H278.625C276.904 266.25 275.5 264.846 275.5 263.125V141.25H303.625C308.789 141.25 313 137.039 313 131.875V103.75ZM306.75 105.312V131.875C306.75 133.596 305.346 135 303.625 135H277.062C277.404 134.487 277.795 133.999 278.247 133.547L305.297 106.497C305.749 106.045 306.237 105.654 306.75 105.312ZM350.012 147.537C348.815 147.72 347.778 148.611 347.473 149.868L328.723 224.868C328.295 226.541 329.321 228.237 330.993 228.652C331.25 228.726 331.506 228.75 331.75 228.75C333.154 228.75 334.423 227.81 334.777 226.394L353.527 151.394C353.955 149.709 352.929 148.013 351.257 147.598C350.842 147.488 350.415 147.463 350.012 147.537ZM313 166.25C312.207 166.25 311.401 166.555 310.791 167.166L292.041 185.916C290.82 187.136 290.82 189.114 292.041 190.334L310.791 209.084C311.401 209.695 312.194 210 313 210C313.806 210 314.599 209.695 315.209 209.084C316.43 207.864 316.43 205.886 315.209 204.666L298.669 188.125L315.209 171.584C316.43 170.364 316.43 168.386 315.209 167.166C314.599 166.555 313.793 166.25 313 166.25ZM369.25 166.25C368.457 166.25 367.651 166.555 367.041 167.166C365.82 168.386 365.82 170.364 367.041 171.584L383.581 188.125L367.041 204.666C365.82 205.886 365.82 207.864 367.041 209.084C367.651 209.695 368.444 210 369.25 210C370.056 210 370.849 209.695 371.459 209.084L390.209 190.334C391.43 189.114 391.43 187.136 390.209 185.916L371.459 167.166C370.849 166.555 370.043 166.25 369.25 166.25ZM284.875 241.25C283.142 241.25 281.75 242.654 281.75 244.375V250.625C281.75 252.346 283.142 253.75 284.875 253.75C286.608 253.75 288 252.346 288 250.625V244.375C288 242.654 286.608 241.25 284.875 241.25ZM300.5 241.25C298.767 241.25 297.375 242.654 297.375 244.375V250.625C297.375 252.346 298.767 253.75 300.5 253.75C302.233 253.75 303.625 252.346 303.625 250.625V244.375C303.625 242.654 302.233 241.25 300.5 241.25ZM316.125 241.25C314.392 241.25 313 242.654 313 244.375V250.625C313 252.346 314.392 253.75 316.125 253.75C317.858 253.75 319.25 252.346 319.25 250.625V244.375C319.25 242.654 317.858 241.25 316.125 241.25ZM331.75 241.25C330.017 241.25 328.625 242.654 328.625 244.375V250.625C328.625 252.346 330.017 253.75 331.75 253.75C333.483 253.75 334.875 252.346 334.875 250.625V244.375C334.875 242.654 333.483 241.25 331.75 241.25ZM347.375 241.25C345.642 241.25 344.25 242.654 344.25 244.375V250.625C344.25 252.346 345.642 253.75 347.375 253.75C349.108 253.75 350.5 252.346 350.5 250.625V244.375C350.5 242.654 349.108 241.25 347.375 241.25ZM363 241.25C361.267 241.25 359.875 242.654 359.875 244.375V250.625C359.875 252.346 361.267 253.75 363 253.75C364.733 253.75 366.125 252.346 366.125 250.625V244.375C366.125 242.654 364.733 241.25 363 241.25ZM378.625 241.25C376.892 241.25 375.5 242.654 375.5 244.375V250.625C375.5 252.346 376.892 253.75 378.625 253.75C380.358 253.75 381.75 252.346 381.75 250.625V244.375C381.75 242.654 380.358 241.25 378.625 241.25ZM394.25 241.25C392.517 241.25 391.125 242.654 391.125 244.375V250.625C391.125 252.346 392.517 253.75 394.25 253.75C395.983 253.75 397.375 252.346 397.375 250.625V244.375C397.375 242.654 395.983 241.25 394.25 241.25Z" fill="#333333"/>
</g>
<defs>
<clipPath id="clip0">
<rect width="370" height="370" fill="white"/>
</clipPath>
</defs>
</svg>
