<svg width="370" height="370" viewBox="0 0 370 370" fill="none" xmlns="http://www.w3.org/2000/svg">
<g clip-path="url(#clip0)">
<path d="M413.487 95.9659C382.337 66.2088 332.787 67.3414 303.03 98.4907C273.273 129.64 274.406 179.19 305.555 208.947C318.018 220.853 333.416 227.797 349.315 229.869C349.315 229.869 349.722 242.007 349.921 242.4C349.87 242.453 349.819 242.488 349.769 242.541C346.885 245.56 345.344 249.524 345.448 253.692L346.492 299.393C346.591 303.708 348.432 307.56 351.327 310.325C354.222 313.091 358.163 314.762 362.469 314.655L363.996 314.612C368.164 314.525 372.045 312.813 374.928 309.794C377.812 306.776 379.354 302.812 379.25 298.644L378.205 252.943C378.105 248.559 376.194 244.657 373.212 241.893C373.393 241.475 373.253 229.321 373.253 229.321C389.041 226.526 404.105 218.886 416.012 206.422C445.769 175.273 444.636 125.723 413.487 95.9659ZM409.17 100.485C437.83 127.864 438.872 173.445 411.492 202.105C384.113 230.765 338.532 231.807 309.872 204.428C281.212 177.049 280.17 131.468 307.549 102.808C334.929 74.1478 380.509 73.1059 409.17 100.485ZM400.535 109.524C389.069 98.5703 374.016 92.7325 358.164 93.0862C325.433 93.843 299.411 121.082 300.159 153.805C300.521 169.666 307.041 184.436 318.507 195.39C329.973 206.343 345.026 212.181 360.878 211.827C393.609 211.07 419.631 183.831 418.891 151.1C418.52 135.247 412.001 120.477 400.535 109.524ZM396.218 114.043C406.474 123.841 412.302 137.056 412.626 151.243C413.304 180.522 390.015 204.901 360.735 205.562C346.548 205.886 333.081 200.668 322.824 190.87C312.567 181.072 306.74 167.857 306.415 153.67C305.738 124.391 329.019 100.021 358.307 99.3511C372.494 99.0268 385.961 104.245 396.218 114.043ZM389.309 120.409C380.999 112.655 370.024 108.451 358.521 108.705C356.787 108.754 355.429 110.175 355.46 111.91C355.488 112.764 355.851 113.55 356.434 114.106C357.008 114.654 357.81 114.981 358.664 114.97C369.925 114.704 380.602 119.451 387.964 128.02C389.107 129.315 391.062 129.477 392.375 128.351C393.687 127.224 393.832 125.252 392.705 123.94C391.632 122.695 390.5 121.512 389.309 120.409ZM401.194 139.865C400.447 138.916 399.158 138.444 397.906 138.784C396.241 139.236 395.261 140.951 395.723 142.624C396.497 145.524 396.937 148.545 397.007 151.6C397.027 152.463 397.39 153.231 397.972 153.788C398.555 154.344 399.339 154.672 400.211 154.661C401.928 154.613 403.294 153.183 403.264 151.465C403.174 147.902 402.661 144.373 401.746 140.984C401.633 140.572 401.443 140.188 401.194 139.865ZM330.045 119.976C328.8 118.787 326.824 118.824 325.626 120.077C324.429 121.33 324.483 123.306 325.727 124.495L330.247 128.813C331.491 130.002 333.468 129.965 334.665 128.712C335.862 127.458 335.809 125.482 334.564 124.293L330.045 119.976ZM388.795 176.101C387.55 174.912 385.574 174.948 384.377 176.202C383.179 177.455 383.233 179.431 384.478 180.62L388.997 184.937C390.242 186.126 392.218 186.09 393.415 184.836C394.613 183.583 394.559 181.607 393.314 180.418L388.795 176.101ZM326.871 136.375C326.588 136.088 326.229 135.846 325.837 135.691L320.025 133.38C318.422 132.744 316.609 133.528 315.972 135.131C315.482 136.351 315.815 137.699 316.707 138.55C316.989 138.82 317.331 139.045 317.714 139.192L323.526 141.503C325.129 142.139 326.942 141.356 327.579 139.752C328.052 138.55 327.745 137.227 326.871 136.375ZM376.523 184.635C375.64 183.792 374.304 183.512 373.124 184.022C371.534 184.715 370.799 186.545 371.491 188.135L373.962 193.872C374.127 194.265 374.376 194.605 374.676 194.891C375.559 195.734 376.878 196.015 378.075 195.504C379.657 194.821 380.383 192.982 379.699 191.401L377.228 185.664C377.055 185.262 376.814 184.913 376.523 184.635ZM324.193 151.054C323.611 150.497 322.826 150.17 321.963 150.19L315.716 150.332C313.99 150.372 312.624 151.802 312.663 153.528C312.683 154.391 313.046 155.159 313.628 155.716C314.211 156.272 314.995 156.6 315.858 156.58L322.106 156.437C323.832 156.398 325.198 154.968 325.159 153.242C325.139 152.379 324.767 151.602 324.193 151.054ZM362.536 187.683C361.963 187.135 361.169 186.799 360.306 186.819C358.58 186.858 357.214 188.288 357.254 190.014L357.397 196.262C357.416 197.125 357.779 197.894 358.362 198.45C358.944 199.007 359.729 199.334 360.592 199.314C362.318 199.275 363.684 197.845 363.644 196.119L363.502 189.871C363.482 189.008 363.11 188.231 362.536 187.683ZM327.241 165.04C326.359 164.197 325.031 163.908 323.843 164.427L318.106 166.898C316.524 167.582 315.789 169.429 316.473 171.011C316.646 171.412 316.887 171.744 317.187 172.03C318.061 172.865 319.397 173.145 320.586 172.643L326.323 170.172C327.904 169.489 328.639 167.642 327.955 166.06C327.782 165.658 327.533 165.318 327.241 165.04ZM347.859 185.074C347.568 184.796 347.209 184.554 346.817 184.399C345.205 183.754 343.392 184.538 342.755 186.141L340.445 191.953C339.955 193.172 340.296 194.512 341.196 195.372C341.479 195.641 341.812 195.858 342.204 196.013C343.807 196.65 345.62 195.866 346.256 194.263L348.567 188.451C349.04 187.249 348.725 185.935 347.859 185.074ZM335.776 177.312C334.531 176.124 332.555 176.16 331.358 177.413L327.04 181.933C325.843 183.186 325.897 185.162 327.141 186.351C328.386 187.54 330.362 187.503 331.56 186.25L335.877 181.731C337.074 180.477 337.02 178.501 335.776 177.312ZM367.013 230.163L367.194 238.456C365.62 237.966 363.963 237.65 362.22 237.689L360.71 237.715C358.984 237.755 357.352 238.137 355.785 238.7L355.587 230.425C359.399 230.622 363.214 230.535 367.013 230.163ZM369.062 246.521C370.8 248.182 371.907 250.505 371.966 253.094L373.011 298.796C373.068 301.298 372.138 303.668 370.409 305.477C368.681 307.287 366.347 308.316 363.845 308.373L362.326 308.408C357.157 308.517 352.867 304.419 352.74 299.25L351.695 253.549C351.638 251.046 352.559 248.668 354.288 246.859C356.017 245.049 358.35 244.02 360.853 243.963L362.372 243.928C364.96 243.869 367.332 244.868 369.062 246.521Z" fill="#333333"/>
</g>
<defs>
<clipPath id="clip0">
<rect width="370" height="370" fill="white"/>
</clipPath>
</defs>
</svg>
